<?xml version="1.0" encoding="UTF-8"?>
<svg width="188px" height="200px" viewBox="0 0 188 200" version="1.1" xmlns="http://www.w3.org/2000/svg" xmlns:xlink="http://www.w3.org/1999/xlink">
    <!-- Generator: Sketch 63 (92445) - https://sketch.com -->
    <title>ng-seeds</title>
    <g id="log" stroke="none" stroke-width="1" fill="none" fill-rule="evenodd">
        <g id="angular" fill-rule="nonzero">
            <g id="路径">
                <polygon fill="#EF7DA9" points="94 0 94 0 94 0 0.9 33.2 15.1 156.3 94 200 94 200 94 200 172.9 156.3 187.1 33.2"></polygon>
                <polygon fill="#DE709A" points="94 0 94 22.2 94 22.1 94 123.4 94 123.4 94 200 94 200 172.9 156.3 187.1 33.2"></polygon>
            </g>
            <g id="种子" transform="translate(52.000000, 53.000000)" fill="#FFFFFF">
                <path d="M83.5718369,38.8644245 C83.2317073,38.4042492 82.6915015,38.1341463 82.1212843,38.1341463 L43.4074245,38.1341463 C43.5374741,37.8840511 43.6175046,37.6039444 43.6175046,37.2938262 L43.6175046,19.8871951 C49.7698483,21.3277439 72.1083582,26.7598133 79.9913613,4.6413872 C79.9913613,4.6413872 57.1657774,-9.02175651 42,16.4279386 C26.8342226,-9.02175651 5.40294664,4.6413872 5.40294664,4.6413872 C9.80462346,19.947218 32.6833392,21.4778011 39.8860831,20.2773437 L39.8860831,37.30383 C39.8860831,37.6139482 39.9661136,37.8940549 40.1061669,38.1441502 L1.92073171,38.1441502 C1.32050305,38.1441502 0.760289634,38.4342607 0.420160061,38.9344512 C0.0800304878,39.424638 0.010003811,40.0448742 0.21008003,40.6050877 L5.00190549,54.4703697 C5.26200457,55.1806402 5.94226372,55.6508194 6.70255335,55.6508194 L9.94378811,55.6508194 L15.2358041,89.0935595 C15.3758575,89.9738948 16.1461509,90.6241425 17.0364901,90.6241425 L68.0859375,90.6241425 C68.9962843,90.6241425 69.7565739,89.963891 69.8866235,89.063548 L74.6484375,55.6408155 L78.3898628,55.6408155 C79.1901677,55.6408155 79.9104421,55.1106136 80.1405297,54.3303163 L83.8519436,40.4550305 C84.0220084,39.9048209 83.9119665,39.314596 83.5718369,38.8644245 Z M66.5153392,86.9827553 L18.5870808,86.9827553 C18.1769245,84.351753 13.865282,57.1613948 13.33508,53.8101181 L71.2471418,53.8101181 C70.7869665,57.0013338 66.895484,84.301734 66.5153392,86.9827553 Z M77.0393483,52.0094322 L75.1786395,52.0094322 C75.148628,52.0094322 75.1286204,51.9994284 75.1086128,51.9994284 L73.4879954,51.9994284 C73.4379764,51.9894245 73.3979611,51.9694169 73.3479421,51.9594131 C73.1078506,51.9193979 72.8677591,51.9394055 72.6476753,51.9994284 L11.9245427,51.9994284 C11.694455,51.9394055 11.4443598,51.9294017 11.1942645,51.9594131 C11.1442454,51.9694169 11.114234,51.9794207 11.0642149,51.9994284 L10.8441311,51.9994284 C10.8141197,51.9994284 10.794112,52.0094322 10.7741044,52.0094322 L7.95302973,52.0094322 C7.3828125,50.4788491 5.60213415,44.606612 4.54173018,41.7755335 L79.6803544,41.7755335 C78.9000572,44.4965701 77.5195312,50.3287919 77.0393483,52.0094322 Z" id="形状"></path>
            </g>
        </g>
    </g>
</svg>